<svg xmlns="http://www.w3.org/2000/svg" viewBox="0 0 162.68 145.18">
  <defs/>
  <linearGradient id="a" x1="568.71" x2="649.94" y1="3068.99" y2="3209.67" gradientTransform="translate(-528.03 -3066.82)" gradientUnits="userSpaceOnUse">
    <stop offset="0" stop-color="#9f0"/>
    <stop offset="1" stop-color="#00dd3b"/>
  </linearGradient>
  <linearGradient id="b" x1="603.65" x2="615.1" y1="3129.42" y2="3149.25" gradientTransform="translate(-528.03 -3066.82)" gradientUnits="userSpaceOnUse">
    <stop offset="0" stop-color="#9f0"/>
    <stop offset="1" stop-color="#00dd3b"/>
  </linearGradient>
  <path fill="url(#a)" fill-rule="evenodd" d="M41 43.16c-2.2-9-5.6-29.1 3.5-34.3 9.1-5.2 24.8 7.7 31.6 14.1-4.9 5.3-9.5 10.9-13.7 16.8-7.2.7-14.4 1.8-21.4 3.4zm31.3-4.1c3-3.9 6-7.5 9.1-10.8 3.2 3.4 6.2 7 9.1 10.8-6.1-.3-12.2-.3-18.2 0zm-5.8 7.9c9.8-.7 19.7-.7 29.6 0 5 7.3 9.6 15 13.5 22.9.4.9.9 1.7 1.3 2.6-.4.9-.8 1.7-1.3 2.6-4 7.9-8.5 15.6-13.5 23-9.8.7-19.7.7-29.6 0a191.45 191.45 0 01-14.8-25.6c4.3-8.8 9.3-17.4 14.8-25.5zm43.2 43.9c1.9-3.1 3.6-6.3 5.3-9.4 1.9 4.5 3.5 8.9 4.8 13.2-3.2.7-6.6 1.4-10.1 1.9-1.3.2-2.5.4-3.8.5 1.3-2 2.6-4.1 3.8-6.2zM43 50.36c4.4-1 9-1.8 13.9-2.4-3.3 5.1-6.3 10.3-9.1 15.7-1.9-4.5-3.5-9-4.8-13.3zm43.6 71.8c4.9-5.3 9.4-10.9 13.6-16.8 3.2-.3 6.3-.7 9.3-1.2 4.2-.6 8.3-1.4 12.1-2.3 2.2 9.1 5.6 29.1-3.5 34.4-2.6 1.3-5.6 1.6-8.5.8-4.9-1.2-10.6-4.5-16.9-9.4-1.9-1.8-4-3.5-6.1-5.5zm-38.8-40.7c2.8 5.4 5.8 10.6 9.1 15.7-4.9-.6-9.5-1.5-13.9-2.5 1.3-4.3 2.9-8.7 4.8-13.2zm-6.8 20.5c7.1 1.6 14.2 2.7 21.4 3.4 4.2 5.9 8.8 11.5 13.7 16.8-6.7 6.4-22.4 19.4-31.5 14.1-9.2-5.2-5.8-25.3-3.6-34.3zM7.7 72.56c0-10.5 19.1-17.7 28-20.3 2.1 6.9 4.7 13.7 7.8 20.3-3 6.6-5.6 13.3-7.8 20.2-9-2.6-28-9.7-28-20.2zm25.9 27.5c-3.1 12.7-6 35.2 7.1 42.8 13.1 7.6 31.2-6.3 40.6-15.3 2.3 2.2 4.5 4.1 6.7 5.9 7.6 6.1 15 10 21.6 11.2 4.2.9 8.6.3 12.3-1.8 13.1-7.6 10.2-30.1 7.1-42.8 12.6-3.7 33.6-12.4 33.6-27.5s-21-23.9-33.6-27.5c3.1-12.7 6-35.2-7.1-42.8a18.1 18.1 0 00-12.3-1.9c-10.5 1.9-21.6 10.7-28.3 17.1-9.4-9.1-27.5-22.8-40.6-15.3-13.1 7.5-10.2 30.1-7.1 42.8C21 48.56 0 57.26 0 72.46s21.1 23.8 33.6 27.6zm76.1-45.9c-1.2-2.1-2.5-4.2-3.8-6.2 1.3.2 2.6.3 3.8.5 3.5.5 6.9 1.2 10.1 1.9-1.3 4.3-2.9 8.7-4.8 13.3-1.7-3.2-3.5-6.4-5.3-9.5zm-23-31.2c4.9-4.7 14.6-12.8 23-14.9 2.8-.9 5.9-.6 8.6.8 9.1 5.2 5.7 25.3 3.5 34.3-3.8-.9-7.9-1.6-12.1-2.3-3-.4-6.1-.8-9.3-1.2-4.3-5.8-8.8-11.5-13.7-16.7zm40.4 69.8c-2.1-6.9-4.7-13.7-7.8-20.2 3-6.6 5.6-13.3 7.8-20.3 8.9 2.6 28 9.7 28 20.3 0 10.6-19.1 17.6-28 20.2zm-54.8 13.2c6 .3 12.1.3 18.1 0-3 3.9-6 7.5-9.1 10.8-3-3.3-6-6.9-9-10.8z" clip-rule="evenodd"/>
  <path fill="url(#b)" fill-rule="evenodd" d="M81.4 83.96c6.3 0 11.4-5.2 11.4-11.5s-5.2-11.4-11.5-11.4-11.4 5.2-11.4 11.5 5.1 11.4 11.5 11.4z" clip-rule="evenodd"/>
</svg>
