<svg xmlns="http://www.w3.org/2000/svg" width="48" height="48" viewBox="0 0 48 48">
  <defs/>
  <g fill="none" fill-rule="evenodd">
    <path fill="#87E6E5" d="M11.41 12c.35 0 .59.5.59 1.38v4.12l-5.56 5.88a1.65 1.65 0 000 2.24L12 31.5v4.12c0 .87-.24 1.38-.59 1.38-.14 0-.3-.08-.46-.26L.44 25.62a1.65 1.65 0 010-2.24l10.5-11.12c.17-.18.33-.26.47-.26zm25.18 0c.14 0 .3.08.46.26l10.51 11.12c.59.62.59 1.62 0 2.24l-10.5 11.12c-.17.18-.33.26-.47.26-.35 0-.59-.5-.59-1.38V31.5l5.56-5.88c.59-.62.59-1.62 0-2.24L36 17.5v-4.12c0-.87.24-1.38.59-1.38z"/>
    <rect width="35.57" height="4" x="5.01" y="22.66" fill="#A0DB77" rx="2" transform="rotate(-75 22.8 24.66)"/>
  </g>
</svg>
