<svg xmlns="http://www.w3.org/2000/svg" width="48" height="48" viewBox="0 0 48 48">
  <defs/>
  <g fill="none" fill-rule="evenodd">
    <path fill="#96D07C" d="M2.53 17.92a.44.44 0 01-.24.08c-.17 0-.29-.16-.29-.42V4a4 4 0 014-4h28a4 4 0 014 4v6a4 4 0 01-4 4H8c-.17 0-.33-.01-.49-.03l-4.98 3.95z"/>
    <path fill="#73E1E0" d="M7.51 44.97l-4.98 2.95a.44.44 0 01-.24.08c-.17 0-.29-.16-.29-.43V35a4 4 0 014-4h20a4 4 0 014 4v6a4 4 0 01-4 4H8c-.17 0-.33-.01-.49-.03z"/>
    <path fill="#FFD476" d="M46 19.5v13.57c0 .27-.12.43-.3.43a.44.44 0 01-.23-.08l-4.98-3.95c-.16.02-.32.03-.49.03H18a4 4 0 01-4-4v-6a4 4 0 014-4h24a4 4 0 014 4z"/>
  </g>
</svg>
