<svg xmlns="http://www.w3.org/2000/svg" width="48" height="48" viewBox="0 0 48 48">
  <defs/>
  <g fill="none" fill-rule="evenodd">
    <path fill="#B7F0EF" d="M27.22 9.05l14-2.78A4 4 0 0146 10.19v22.4a4 4 0 01-3.22 3.91l-14 2.78A4 4 0 0124 35.36v-22.4a4 4 0 013.22-3.91z" opacity=".7"/>
    <path fill="#87E6E5" d="M6.78 6.27l14 2.78A4 4 0 0124 12.97v22.39a4 4 0 01-4.78 3.92l-14-2.78A4 4 0 012 32.58V10.2a4 4 0 014.78-3.92z"/>
    <path fill="#61C1FD" d="M22 10a4.7 4.7 0 012.55 1.19c.54.56 1.02 1.69 1.45 3.37v24.66c0 1.7.42 3.74 1.27 6.12l-2.72-3.47-1.57 3.47a20.37 20.37 0 01-.98-5.9V10z"/>
  </g>
</svg>
